<?xml version="1.0" standalone="no"?><!DOCTYPE svg PUBLIC "-//W3C//DTD SVG 1.1//EN" "http://www.w3.org/Graphics/SVG/1.1/DTD/svg11.dtd"><svg t="1685772497348" class="icon" viewBox="0 0 1024 1024" version="1.1" xmlns="http://www.w3.org/2000/svg" p-id="11862" xmlns:xlink="http://www.w3.org/1999/xlink" width="200" height="200"><path d="M0 585.142857m73.142857 0l0 0q73.142857 0 73.142857 73.142857l0 292.571429q0 73.142857-73.142857 73.142857l0 0q-73.142857 0-73.142857-73.142857l0-292.571429q0-73.142857 73.142857-73.142857Z" fill="#46BAFE" p-id="11863"></path><path d="M292.571429 0m73.142857 0l0 0q73.142857 0 73.142857 73.142857l0 877.714286q0 73.142857-73.142857 73.142857l0 0q-73.142857 0-73.142857-73.142857l0-877.714286q0-73.142857 73.142857-73.142857Z" fill="#46BAFE" p-id="11864"></path><path d="M877.714286 438.857143m73.142857 0l0 0q73.142857 0 73.142857 73.142857l0 438.857143q0 73.142857-73.142857 73.142857l0 0q-73.142857 0-73.142857-73.142857l0-438.857143q0-73.142857 73.142857-73.142857Z" fill="#46BAFE" p-id="11865"></path><path d="M585.142857 292.571429m73.142857 0l0 0q73.142857 0 73.142857 73.142857l0 585.142857q0 73.142857-73.142857 73.142857l0 0q-73.142857 0-73.142857-73.142857l0-585.142857q0-73.142857 73.142857-73.142857Z" fill="#46BAFE" p-id="11866"></path></svg>